# xmcd
# 
# Track frame offsets:
#   150
#   10246
#   24095
#   36707
#   51411
#   64294
#   80760
#   99396
#   113613
#   128418
#   140843
#   156410
#   170427
#   182785
#   196292
# 
# Disc length: 2834 seconds
# 
# Revision: 2
# Processed by: cddbd v1.5.2PL0 Copyright (c) Steve Scherf et al.
# Submitted via: Synapstar 1.0 
# 
DISCID=d00b100f
DTITLE=George Jones - CB90075
DYEAR=1900
DGENRE=Country
TTITLE0=Race Is On, The
TTITLE1=Grand Tour, The
TTITLE2=White Lightnin'
TTITLE3=Good Year For The Roses, A
TTITLE4=Still Doin' Time
TTITLE5=I Always Get Lucky With You
TTITLE6=Bartender's Blues
TTITLE7=He Stopped Loving Her Today
TTITLE8=Who's Gonna Fill Their Shoes
TTITLE9=Picture Of Me Without You, A
TTITLE10=If Drinkin' Don't Kill Me Her Memory Will
TTITLE11=Tennessee Whiskey
TTITLE12=One I Loved Back Then, The
TTITLE13=I Don't Need Your Rockin' Chair
TTITLE14=Choices
EXTD=Chartbusters\n MediaType: Karaoke CD+G Producer: Chartbuster
EXTT0=
EXTT1=
EXTT2=
EXTT3=
EXTT4=
EXTT5=
EXTT6=
EXTT7=
EXTT8=
EXTT9=
EXTT10=
EXTT11=
EXTT12=
EXTT13=
EXTT14=
PLAYORDER=
